<?xml version="1.0" encoding="utf-8"?>
<?xml-stylesheet type="text/xsl" href="rss1.xsl"?>
<rss version="2.0" xmlns:atom="http://www.w3.org/2005/Atom" xmlns:content="http://purl.org/rss/1.0/modules/content/" xmlns:dc="http://purl.org/dc/elements/1.1/" xmlns:media="http://search.yahoo.com/mrss/">
<channel>
 <title>Getty</title>
 <link>http://www.gettyimg.com/</link>
 <atom:link href="http://www.gettyimg.com/" rel="self" type="application/rss+xml" />

 
                <item>
                <title><![CDATA[【HD Live Performances】WEB-DL - Jão - Superturnê - 2024 - WEB-DL 1080P AAC2.0 H264-chmt]]></title>
                <link><![CDATA[https://sharemania.us/threads/j%C3%A3o-superturn%C3%AA-2024-web-dl-1080p-aac2-0-h264-chmt.236262/]]></link>
                <description><![CDATA[<article>
<blockquote class="messageText SelectQuoteContainer ugc baseHtml">
<img src="https://i.imgur.com/ifjuFav.jpg" class="bbCodeImage LbImage" alt="[​IMG]" data-url="https://i.imgur.com/ifjuFav.jpg" style=""> <br>
<div class="ToggleTriggerAnchor bbCodeSpoilerContainer">
<button type="button" class="button bbCodeSpoilerButton ToggleTrigger Tooltip JsOnly" data-target="> .SpoilerTarget"><span>Spoiler: <span class="SpoilerTitle">MediaInfo</span></span></button>
<div class="SpoilerTarget bbCodeSpoilerText">General<br>
Unique ID : 252397341503980470906288900929744328246 (0xBDE1F5B4B5124801B3EE2393FA58D636)<br>
Complete name : E:\acervo-dl\Jao.Superturne.Ao.Vivo.2024.1080p.GLBO.WEB-DL.AAC2.0.x264-chmt.mkv<br>
Format : Matroska<br>
Format version : Version 4 / Version 2<br>
File size : 4.70 GiB<br>
Duration : 2 h 20 min<br>
Overall bit rate : 4 791 kb/s<br>
Encoded date : UTC 2024-01-22 12:46:44<br>
Writing application : mkvmerge v59.0.0 ('Shining Star') 64-bit<br>
Writing library : libebml v1.4.2 + libmatroska v1.6.4<br>
<br>
Video<br>
ID : 1<br>
Format : AVC<br>
Format/Info : Advanced Video Codec<br>
Format profile : High@L4<br>
Format settings, CABAC : Yes<br>
Format settings, RefFrames : 2 frames<br>
Codec ID : V_MPEG4/ISO/AVC<br>
Duration : 2 h 20 min<br>
Bit rate : 4 660 kb/s<br>
Width : 1 920 pixels<br>
Height : 1 080 pixels<br>
Display aspect ratio : 16:9<br>
Frame rate mode : Constant<br>
Frame rate : 29.970 (29970/1000) FPS<br>
Color space : YUV<br>
Chroma subsampling : 4:2:0<br>
Bit depth : 8 bits<br>
Scan type : Progressive<br>
Bits/(Pixel*Frame) : 0.075<br>
Stream size : 4.57 GiB (97%)<br>
Writing library : x264 core 148<br>
Encoding settings : cabac=1 / ref=2 / deblock=1:0:0 / analyse=0x3:0x113 / me=hex / subme=4 / psy=1 / psy_rd=1.00:0.00 / mixed_ref=0 / me_range=16 / chroma_me=1 / trellis=1 / 8x8dct=1 / cqm=0 / deadzone=21,11 / fast_pskip=1 / chroma_qp_offset=0 / threads=24 / lookahead_threads=6 / sliced_threads=0 / nr=0 / decimate=1 / interlaced=0 / bluray_compat=0 / constrained_intra=0 / bframes=1 / b_pyramid=0 / b_adapt=1 / b_bias=0 / direct=1 / weightb=1 / open_gop=0 / weightp=1 / keyint=30 / keyint_min=16 / scenecut=0 / intra_refresh=0 / rc=2pass / mbtree=0 / bitrate=4660 / ratetol=1.0 / qcomp=0.60 / qpmin=0 / qpmax=69 / qpstep=4 / cplxblur=20.0 / qblur=0.5 / ip_ratio=1.40 / pb_ratio=1.30 / aq=1:1.00<br>
Default : Yes<br>
Forced : No<br>
<br>
Audio<br>
ID : 2<br>
Format : AAC<br>
Format/Info : Advanced Audio Codec<br>
Format profile : LC<br>
Codec ID : A_AAC<br>
Duration : 2 h 20 min<br>
Bit rate : 128 kb/s<br>
Channel(s) : 2 channels<br>
Channel positions : Front: L R<br>
Sampling rate : 44.1 kHz<br>
Frame rate : 43.066 FPS (1024 SPF)<br>
Compression mode : Lossy<br>
Stream size : 129 MiB (3%)<br>
Title : Brazilian Portuguese<br>
Language : Portuguese<br>
Default : Yes<br>
Forced : No</div>
</div><br>
Link:<br>
<div class="bbCodeBlock bbCodeVfcHH HiddenContent">
<div class="attribution type">Hidden Content:</div>
<blockquote>You must reply before you can see the hidden data contained here.</blockquote>
</div>
<div class="messageTextEndMarker">&nbsp;</div>
</blockquote>
</article>]]></description>
                <author><![CDATA[chmt]]></author>
                </item>

                
                <item>
                <title><![CDATA[【HD Live Performances】HDTV - Jão - Superturnê - 2024 - HDTV 1080P MP2 H264-chmt]]></title>
                <link><![CDATA[https://sharemania.us/threads/j%C3%A3o-superturn%C3%AA-2024-hdtv-1080p-mp2-h264-chmt.236260/]]></link>
                <description><![CDATA[<article>
<blockquote class="messageText SelectQuoteContainer ugc baseHtml">
<img src="https://i.imgur.com/LbFHbah.jpg" class="bbCodeImage LbImage" alt="[​IMG]" data-url="https://i.imgur.com/LbFHbah.jpg" style=""> <br>
<div class="ToggleTriggerAnchor bbCodeSpoilerContainer">
<button type="button" class="button bbCodeSpoilerButton ToggleTrigger Tooltip JsOnly" data-target="> .SpoilerTarget"><span>Spoiler: <span class="SpoilerTitle">MediaInfo</span></span></button>
<div class="SpoilerTarget bbCodeSpoilerText">General<br>
ID : 1 (0x1)<br>
Complete name : Z:\home\acervo\GRAVACOES\Multishow HD-Jão SuperTurne(20240121_195501)\Jao.Superturne.Ao.Vivo.2024.1080p.HDTV.MP2.H264-chmt.ts<br>
Format : MPEG-TS<br>
File size : 4.73 GiB<br>
Duration : 2 h 30 min<br>
Overall bit rate mode : Variable<br>
Overall bit rate : 4 503 kb/s<br>
<br>
Video<br>
ID : 256 (0x100)<br>
Menu ID : 1 (0x1)<br>
Format : AVC<br>
Format/Info : Advanced Video Codec<br>
Format profile : High@L4<br>
Format settings, CABAC : Yes<br>
Format settings, RefFrames : 4 frames<br>
Codec ID : 27<br>
Duration : 2 h 30 min<br>
Bit rate : 3 893 kb/s<br>
Width : 1 920 pixels<br>
Height : 1 080 pixels<br>
Display aspect ratio : 16:9<br>
Frame rate : 29.970 (30000/1001) FPS<br>
Color space : YUV<br>
Chroma subsampling : 4:2:0<br>
Bit depth : 8 bits<br>
Scan type : Interlaced<br>
Scan type, store method : Separated fields<br>
Scan order : Top Field First<br>
Bits/(Pixel*Frame) : 0.063<br>
Stream size : 4.09 GiB (86%)<br>
Color range : Limited<br>
Color primaries : BT.709<br>
Transfer characteristics : BT.709<br>
Matrix coefficients : BT.709<br>
<br>
Audio<br>
ID : 257 (0x101)<br>
Menu ID : 1 (0x1)<br>
Format : MPEG Audio<br>
Format version : Version 1<br>
Format profile : Layer 2<br>
Codec ID : 3<br>
Duration : 2 h 30 min<br>
Bit rate mode : Constant<br>
Bit rate : 384 kb/s<br>
Channel(s) : 2 channels<br>
Sampling rate : 48.0 kHz<br>
Compression mode : Lossy<br>
Delay relative to video : -1 s 25 ms<br>
Stream size : 413 MiB (9%)<br>
Language : Portuguese<br>
<br>
Menu<br>
ID : 4096 (0x1000)<br>
Menu ID : 1 (0x1)<br>
Duration : 2 h 30 min<br>
List : 256 (0x100) (AVC) / 257 (0x101) (MPEG Audio, Portuguese)<br>
Language : / Portuguese<br>
Service name : Service01<br>
Service type : digital television</div>
</div><br>
Link:<br>
<div class="bbCodeBlock bbCodeVfcHH HiddenContent">
<div class="attribution type">Hidden Content:</div>
<blockquote>You must reply before you can see the hidden data contained here.</blockquote>
</div>
<div class="messageTextEndMarker">&nbsp;</div>
</blockquote>
</article>]]></description>
                <author><![CDATA[chmt]]></author>
                </item>

                
                <item>
                <title><![CDATA[【Albums (lossless)】FLAC - Sophie Ellis-Bextor - Read My Lips [Amazon Music 16bit/44.1kHz]]]></title>
                <link><![CDATA[https://sharemania.us/threads/sophie-ellis-bextor-read-my-lips-amazon-music-16bit-44-1khz.236261/]]></link>
                <description><![CDATA[<article>
<blockquote class="messageText SelectQuoteContainer ugc baseHtml">
<img src="https://static.qobuz.com/images/covers/82/96/0073145899682_600.jpg" class="bbCodeImage LbImage" alt="[​IMG]" data-url="https://static.qobuz.com/images/covers/82/96/0073145899682_600.jpg" style=""> <br>
<span style="font-size: 18px"><b>ABOUT THE ALBUM</b></span><br>
<ul>
<li>1 disc(s) - 15 track(s)</li>
<li>Total length: 01:00:16</li>
<li>Main artists: <a href="https://www.qobuz.com/us-en/interpreter/sophie-ellis-bextor/129566" target="_blank" class="externalLink" rel="nofollow">Sophie Ellis-Bextor</a></li>
<li>Composer: <a href="https://www.qobuz.com/us-en/composer/various-composers/573076" target="_blank" class="externalLink" rel="nofollow">Various Composers</a></li>
<li>Label: <a href="https://www.qobuz.com/us-en/label/polydor-records/download-streaming-albums/69536" target="_blank" class="externalLink" rel="nofollow">Polydor Records</a></li>
<li>Genre: <a href="https://www.qobuz.com/us-en/genre/pop-rock/download-streaming-albums" target="_blank" class="externalLink" rel="nofollow">Pop/Rock</a> <a href="https://www.qobuz.com/us-en/genre/pop/download-streaming-albums" target="_blank" class="externalLink" rel="nofollow">Pop</a></li>
</ul><b><span style="color: #ff0000">DOWNLOAD:</span></b><br>
<div class="bbCodeBlock bbCodeVfcHH HiddenContent">
<div class="attribution type">Hidden Content:</div>
<blockquote>You must either reply or click 'Like' to see the hidden information contained here.</blockquote>
</div>
<div class="messageTextEndMarker">&nbsp;</div>
</blockquote>
</article>]]></description>
                <author><![CDATA[olobersykes99]]></author>
                </item>

                </channel></rss>